<?xml version="1.0" encoding="utf-8"?>
<!-- Generator: Adobe Illustrator 18.1.1, SVG Export Plug-In . SVG Version: 6.00 Build 0)  -->
<svg version="1.1" id="Layer_1" xmlns="http://www.w3.org/2000/svg" xmlns:xlink="http://www.w3.org/1999/xlink" x="0px" y="0px"
	 viewBox="0 0 217.93 217.93" enable-background="new 0 0 217.93 217.93" xml:space="preserve">
<g id="possible_logo2.psd_1_">
	<g id="Shape_1_2_">
		<g>
			<path fill="#F37E80" d="M67.01,123.19l-1.61,0.95l0,0l0.95,1.61h0c0.35,0.6,0.67,1.14,0.69,1.17l0,0c0,0,0,0,0,0l0,0c0,0,0,0,0,0
				l0,0l0,0l0,0c0,0,0,0,0,0l0,0c0,0,0,0,0,0l0,0c0,0,0.01-0.01,0.02-0.01l0,0c0,0,0,0,0,0l0,0c0,0,0,0,0,0l0.01,0c0,0,0,0,0,0l0,0
				c0,0,0,0,0,0l0,0c0,0,0,0,0,0l0,0c0.02-0.01,0.05-0.03,0.08-0.05l0,0c0,0,0.01,0,0.01-0.01l0,0c0,0,0,0,0,0l0,0c0,0,0,0,0,0
				l0.01,0c0,0,0,0,0,0l0,0c0,0,0,0,0.01,0l0,0c0,0,0,0,0.01,0l0.02-0.01c0,0,0,0,0,0l0,0c0,0,0,0,0,0l0.02-0.01c0,0,0,0,0,0
				l0.01-0.01c0,0,0,0,0,0l0.01-0.01c0,0,0.01,0,0.01-0.01l0.02-0.01c0,0,0,0,0,0l0.04-0.02c0,0,0,0,0,0l0.02-0.01c0,0,0,0,0,0l0,0
				c0,0,0,0,0,0l0,0c0,0,0,0,0,0l0,0c0,0,0.01,0,0.01-0.01l0.01,0c0,0,0.01,0,0.01,0l0.01,0c0,0,0,0,0,0l0.03-0.02c0,0,0,0,0,0
				l2.91-1.71l-0.95-1.61l-1.72,1.01L67.01,123.19L67.01,123.19z M67.03,126.91L67.03,126.91L67.03,126.91L67.03,126.91
				L67.03,126.91L67.03,126.91z M67.03,126.91L67.03,126.91L67.03,126.91L67.03,126.91L67.03,126.91L67.03,126.91z M67.03,126.92
				L67.03,126.92L67.03,126.92L67.03,126.92L67.03,126.92L67.03,126.92z M79.09,117.67l-3,1.76l-0.69-1.17l-3.03,1.78
				c0,0-0.01,0-0.01,0.01l-0.01,0c-1.67,0.98-3.4,2-3.4,2l0.95,1.61l3-1.76l0.69,1.17l6.18-3.63c0.17-0.1,0.27-0.16,0.27-0.16
				L79.09,117.67L79.09,117.67z M88.77,111.98l-3,1.76l-0.69-1.17l-6.45,3.79l0.95,1.61l3-1.76l0.69,1.17l5.33-3.13c0,0,0,0,0.01,0
				l0.01,0c0.01-0.01,0.02-0.01,0.03-0.02l0,0c0.64-0.38,1.07-0.63,1.07-0.63L88.77,111.98L88.77,111.98z M98.44,106.3l-3,1.76
				l-0.69-1.17l-6.45,3.79l0.95,1.61l3-1.76l0.69,1.17l4.5-2.64c1.09-0.64,1.95-1.15,1.95-1.15L98.44,106.3L98.44,106.3z
				 M108.12,100.62l-3,1.76l-0.69-1.17L97.98,105l0.95,1.61l3-1.76l0.69,1.17l3.59-2.11l0,0l0.01-0.01
				c1.48-0.87,2.84-1.67,2.84-1.67L108.12,100.62L108.12,100.62z M117.79,94.94l-3,1.76l-0.69-1.17l-6.45,3.79l0.95,1.61l3-1.76
				l0.69,1.17l6.45-3.79L117.79,94.94L117.79,94.94z M127.47,89.26l-3,1.76l-0.69-1.17c0,0-2.71,1.59-4.61,2.71l-0.01,0.01
				c0,0,0,0,0,0l-1.82,1.07l0.95,1.61l3-1.76l0.69,1.17l6.45-3.79L127.47,89.26L127.47,89.26z M137.15,83.58l-3,1.76l-0.69-1.17
				c0,0-1.06,0.62-2.33,1.37l0,0c-0.01,0-0.01,0.01-0.02,0.01l-0.06,0.03c-0.01,0-0.01,0.01-0.02,0.01l-4.03,2.37l0.95,1.61l3-1.76
				l0.69,1.17l6.45-3.79L137.15,83.58L137.15,83.58z M143.13,78.49L143.13,78.49C143.13,78.49,143.13,78.49,143.13,78.49
				L143.13,78.49C143.13,78.49,143.13,78.49,143.13,78.49L143.13,78.49c-0.01,0.01-0.01,0.01-0.01,0.01l0,0c0,0,0,0-0.01,0l0,0
				c0,0,0,0,0,0l0,0c0,0,0,0,0,0l0,0c0,0,0,0-0.01,0l0,0c0,0,0,0,0,0l0,0c0,0,0,0,0,0l0,0c0,0,0,0,0,0l0,0c0,0,0,0,0,0l-0.01,0
				c0,0-0.01,0.01-0.01,0.01l-0.01,0c0,0,0,0,0,0l-0.01,0c0,0-0.01,0.01-0.01,0.01l0,0c0,0-0.01,0-0.01,0.01l-0.01,0.01c0,0,0,0,0,0
				l-0.02,0.01c0,0-0.01,0-0.01,0l-0.01,0.01c0,0,0,0,0,0l-0.01,0c0,0,0,0,0,0l-0.01,0c0,0,0,0,0,0l-6.27,3.68l0.95,1.61l3-1.76
				l0.69,1.17l3.45-2.03l0,0l0,0l0,0l0,0l0,0l0,0l-0.95-1.61h0c-0.06-0.1-0.12-0.2-0.17-0.29l0,0c-0.1-0.16-0.19-0.32-0.26-0.45l0,0
				c-0.08-0.13-0.14-0.24-0.19-0.32l0,0C143.16,78.54,143.14,78.5,143.13,78.49L143.13,78.49
				C143.13,78.49,143.13,78.49,143.13,78.49L143.13,78.49C143.13,78.49,143.13,78.49,143.13,78.49L143.13,78.49L143.13,78.49
				L143.13,78.49L143.13,78.49z"/>
		</g>
	</g>
	<g id="Rectangle_1_2_">
		<g>
			<path fill="#FFFFFF" d="M108.96,4.24l104.72,104.72L108.96,213.68L4.24,108.96L108.96,4.24 M108.96,0L0,108.96l108.96,108.96
				l108.96-108.96L108.96,0L108.96,0z"/>
		</g>
	</g>
	<g id="Rectangle_1_copy_2_">
		<g>
			<path fill="#FFFFFF" d="M123.49,5.25l89.18,118.23L94.44,212.67L5.25,94.44L123.49,5.25 M124.07,1.05L1.05,93.85l92.8,123.02
				l123.02-92.8L124.07,1.05L124.07,1.05z"/>
		</g>
	</g>
	<g id="Rectangle_1_copy_2_2_">
		<g>
			<path fill="#FFFFFF" d="M138.65,8.54l70.74,130.11L79.27,209.39L8.54,79.27L138.65,8.54 M139.85,4.47L4.47,78.07l73.6,135.38
				l135.38-73.6L139.85,4.47L139.85,4.47z"/>
		</g>
	</g>
	<text transform="matrix(1 0 0 1 69.1227 94.4625)" fill="#FFFFFF" font-family="'SegoeUIBlack-Italic'" font-size="72">J</text>
	<text transform="matrix(1 0 0 1 103.6823 162.8633)" fill="#FFFFFF" font-family="'SegoeUIBlack-Italic'" font-size="72">R</text>
</g>
</svg>
